<?xml version="1.0" encoding="UTF-8"?>
<svg width="20px" height="20px" viewBox="0 0 20 20" version="1.1" xmlns="http://www.w3.org/2000/svg" xmlns:xlink="http://www.w3.org/1999/xlink">
    <!-- Generator: Sketch 64 (93537) - https://sketch.com -->
    <title>Icon</title>
    <desc>Created with Sketch.</desc>
    <g id="Symbols" stroke="none" stroke-width="1" fill="none" fill-rule="evenodd">
        <g id="Menu-&gt;-Collapsed-&gt;-Publish" transform="translate(-34.000000, -183.000000)">
            <g id="Side-menu">
                <g id="Intent-model" transform="translate(32.000000, 168.000000)">
                    <g id="Icon" transform="translate(0.019406, 11.198020)">
                        <rect id="Rectangle" x="0.0198019802" y="0.801980198" width="23.7623762" height="23.7623762"></rect>
                        <path d="M9.59009901,20.0951282 L4.38019802,20.0951282 C3.12079208,20.0951282 2.0990099,19.0702372 2.0990099,17.8156293 L2.0990099,6.57716923 C2.0990099,5.313726 3.12079208,4.29767026 4.38019802,4.29767026 L19.4217822,4.29767026 C20.6811881,4.29767026 21.7029703,5.313726 21.7029703,6.57716923 C21.7029703,6.57716923 21.7029703,17.8156293 21.7029703,17.8156293 C21.7029703,19.0702372 20.6811881,20.0951282 19.4217822,20.0951282 L14.2118812,20.0951282 L12.6613861,22.63085 C12.4990099,22.895908 12.2108911,23.0549428 11.9009901,23.0549428 C11.5910891,23.0549428 11.3029703,22.895908 11.1405941,22.63085 L9.59009901,20.0951282 Z M11.9009901,20.4573742 L12.9514851,18.7344971 C13.1138614,18.469439 13.4019802,18.3104042 13.7118812,18.3104042 C13.7118812,18.3104042 19.4217822,18.3104042 19.4217822,18.3104042 C19.6970297,18.3104042 19.9207921,18.0895226 19.9207921,17.8156293 L19.9207921,6.57716923 C19.9207921,6.30327594 19.6970297,6.07355899 19.4217822,6.07355899 C19.4217822,6.07355899 4.38019802,6.07355899 4.38019802,6.07355899 C4.1049505,6.07355899 3.88118812,6.30327594 3.88118812,6.57716923 C3.88118812,6.57716923 3.88118812,17.8156293 3.88118812,17.8156293 C3.88118812,18.0895226 4.1049505,18.3104042 4.38019802,18.3104042 L10.090099,18.3104042 C10.4,18.3104042 10.6881188,18.469439 10.850495,18.7344971 L11.9009901,20.4573742 Z" id="Shape" fill-opacity="0.36" fill="#000000"></path>
                        <circle id="Oval" fill-opacity="0.36" fill="#000000" cx="8.09378404" cy="12.4285989" r="1.3611262"></circle>
                        <circle id="Oval" fill-opacity="0.36" fill="#000000" cx="11.9017048" cy="12.4285989" r="1.3611262"></circle>
                        <circle id="Oval" fill-opacity="0.36" fill="#000000" cx="15.7096256" cy="12.4285989" r="1.3611262"></circle>
                    </g>
                </g>
            </g>
        </g>
    </g>
</svg>